<?xml version="1.0" encoding="UTF-8" standalone="no"?>
<svg
   xmlns:dc="http://purl.org/dc/elements/1.1/"
   xmlns:cc="http://creativecommons.org/ns#"
   xmlns:rdf="http://www.w3.org/1999/02/22-rdf-syntax-ns#"
   xmlns:svg="http://www.w3.org/2000/svg"
   xmlns="http://www.w3.org/2000/svg"
   xmlns:sodipodi="http://sodipodi.sourceforge.net/DTD/sodipodi-0.dtd"
   xmlns:inkscape="http://www.inkscape.org/namespaces/inkscape"
   version="1.0"
   width="1024"
   height="1024"
   viewBox="0 0 3160 2610"
   preserveAspectRatio="xMidYMid meet"
   id="svg27"
   sodipodi:docname="logo.svg"
   inkscape:version="0.92.4 5da689c313, 2019-01-14"
   inkscape:export-filename="/home/micha/Projects/haus23/site/src/assets/logo-extracted.png"
   inkscape:export-xdpi="311.09"
   inkscape:export-ydpi="311.09">
  <metadata
     id="metadata33">
    <rdf:RDF>
      <cc:Work
         rdf:about="">
        <dc:format>image/svg+xml</dc:format>
        <dc:type
           rdf:resource="http://purl.org/dc/dcmitype/StillImage" />
      </cc:Work>
    </rdf:RDF>
  </metadata>
  <defs
     id="defs31" />
  <sodipodi:namedview
     pagecolor="#ffffff"
     bordercolor="#666666"
     borderopacity="1"
     objecttolerance="10"
     gridtolerance="10"
     guidetolerance="10"
     inkscape:pageopacity="0"
     inkscape:pageshadow="2"
     inkscape:window-width="1920"
     inkscape:window-height="1009"
     id="namedview29"
     showgrid="false"
     inkscape:zoom="0.90421456"
     inkscape:cx="390.48489"
     inkscape:cy="1324.9068"
     inkscape:window-x="0"
     inkscape:window-y="29"
     inkscape:window-maximized="1"
     inkscape:current-layer="svg27" />
  <g
     id="layer101"
     style="fill:#000000;stroke:none"
     transform="matrix(1.2467639,0,0,1.2275549,-436.27386,-333.86844)">
    <path
       d="m 1155,2469 c -108,-16 -165,-32 -165,-45 0,-8 41,-141 91,-296 50,-156 101,-314 113,-352 26,-84 46,-98 41,-29 -2,26 -6,140 -9,253 -7,211 -17,475 -20,476 0,0 -23,-3 -51,-7 z"
       id="path2"
       inkscape:connector-curvature="0" />
    <path
       d="m 1454,2452 c -4,-15 -51,-189 -105,-387 -62,-229 -94,-364 -88,-370 6,-6 14,-2 23,10 8,11 124,173 259,360 135,187 243,343 238,348 -9,9 -205,52 -273,61 -46,5 -48,4 -54,-22 z"
       id="path4"
       inkscape:connector-curvature="0" />
    <path
       d="m 770,2336 c -62,-37 -130,-89 -129,-100 0,-6 120,-134 267,-283 182,-186 271,-270 280,-265 9,6 -41,98 -183,336 -107,181 -196,330 -197,331 -2,1 -19,-8 -38,-19 z"
       id="path6"
       inkscape:connector-curvature="0" />
    <path
       d="m 1701,1978 c -340,-255 -400,-303 -388,-315 11,-12 82,9 458,132 244,81 494,162 554,182 61,20 113,39 117,42 12,11 -152,141 -284,225 l -56,35 z"
       id="path8"
       inkscape:connector-curvature="0" />
    <path
       d="m 498,2083 c -20,-24 -81,-133 -77,-138 2,-2 123,-51 269,-110 146,-59 307,-125 359,-146 92,-38 120,-43 90,-15 -24,23 -608,426 -617,426 -5,0 -16,-8 -24,-17 z"
       id="path10"
       inkscape:connector-curvature="0" />
    <path
       d="m 356,1715 c -9,-68 -8,-165 3,-165 7,0 376,25 676,46 50,4 93,11 97,17 4,6 6,13 4,14 -1,2 -163,30 -359,63 -196,33 -369,63 -385,66 -28,6 -29,4 -36,-41 z"
       id="path12"
       inkscape:connector-curvature="0" />
    <path
       d="m 2510,1700 c -52,-5 -140,-11 -195,-14 -55,-4 -127,-9 -160,-12 -78,-6 -785,-54 -807,-54 -30,0 -9,-27 25,-33 18,-3 358,-60 755,-127 398,-67 726,-119 729,-116 11,10 -48,168 -99,269 l -50,97 -51,-1 c -29,-1 -95,-5 -147,-9 z"
       id="path14"
       inkscape:connector-curvature="0" />
    <path
       d="m 758,1466 c -201,-66 -370,-124 -373,-128 -9,-9 27,-129 65,-213 22,-50 33,-65 43,-58 6,6 157,119 334,251 233,175 321,246 317,257 -4,8 -9,15 -13,14 -3,-1 -171,-56 -373,-123 z"
       id="path16"
       inkscape:connector-curvature="0" />
    <path
       d="m 1323,1564 c -3,-8 -4,-16 -2,-18 2,-2 81,-57 174,-122 181,-125 295,-205 545,-379 258,-180 424,-295 565,-393 l 134,-92 40,69 c 64,109 126,313 99,324 -7,2 -215,87 -463,187 -1072,435 -1086,440 -1092,424 z"
       id="path18"
       inkscape:connector-curvature="0" />
    <path
       d="m 1137,1508 c -13,-18 -71,-98 -129,-178 C 951,1250 844,1103 772,1003 699,903 640,817 640,811 c 0,-6 53,-64 117,-130 109,-109 168,-159 177,-150 5,6 266,972 266,986 0,9 -21,23 -35,23 -2,0 -15,-15 -28,-32 z"
       id="path20"
       inkscape:connector-curvature="0" />
    <path
       d="m 1300,1531 c 0,-6 172,-299 381,-653 210,-354 386,-653 392,-665 9,-20 15,-22 51,-16 119,18 356,110 356,138 0,6 -17,28 -37,47 -21,19 -168,170 -328,334 -159,164 -375,387 -480,494 -104,107 -219,225 -255,263 -63,65 -80,77 -80,58 z"
       id="path22"
       inkscape:connector-curvature="0" />
    <path
       d="m 1244,1403 c 3,-65 8,-201 11,-303 3,-102 7,-237 10,-300 3,-63 8,-198 11,-300 3,-102 7,-186 9,-188 19,-21 401,-130 413,-118 2,2 -51,174 -118,382 -67,209 -153,478 -191,599 -117,367 -108,345 -131,345 -19,0 -20,-4 -14,-117 z"
       id="path24"
       inkscape:connector-curvature="0" />
  </g>
</svg>
