<!DOCTYPE svg PUBLIC "-//W3C//DTD SVG 20010904//EN" "http://www.w3.org/TR/2001/REC-SVG-20010904/DTD/svg10.dtd">
<svg version="1.0" xmlns="http://www.w3.org/2000/svg" width="316px" height="261px" viewBox="0 0 3160 2610" preserveAspectRatio="xMidYMid meet">
<g id="layer101" fill="#fff" stroke="none">
 <path d="M1155 2469 c-108 -16 -165 -32 -165 -45 0 -8 41 -141 91 -296 50 -156 101 -314 113 -352 26 -84 46 -98 41 -29 -2 26 -6 140 -9 253 -7 211 -17 475 -20 476 0 0 -23 -3 -51 -7z"/>
 <path d="M1454 2452 c-4 -15 -51 -189 -105 -387 -62 -229 -94 -364 -88 -370 6 -6 14 -2 23 10 8 11 124 173 259 360 135 187 243 343 238 348 -9 9 -205 52 -273 61 -46 5 -48 4 -54 -22z"/>
 <path d="M770 2336 c-62 -37 -130 -89 -129 -100 0 -6 120 -134 267 -283 182 -186 271 -270 280 -265 9 6 -41 98 -183 336 -107 181 -196 330 -197 331 -2 1 -19 -8 -38 -19z"/>
 <path d="M1701 1978 c-340 -255 -400 -303 -388 -315 11 -12 82 9 458 132 244 81 494 162 554 182 61 20 113 39 117 42 12 11 -152 141 -284 225 l-56 35 -401 -301z"/>
 <path d="M498 2083 c-20 -24 -81 -133 -77 -138 2 -2 123 -51 269 -110 146 -59 307 -125 359 -146 92 -38 120 -43 90 -15 -24 23 -608 426 -617 426 -5 0 -16 -8 -24 -17z"/>
 <path d="M356 1715 c-9 -68 -8 -165 3 -165 7 0 376 25 676 46 50 4 93 11 97 17 4 6 6 13 4 14 -1 2 -163 30 -359 63 -196 33 -369 63 -385 66 -28 6 -29 4 -36 -41z"/>
 <path d="M2510 1700 c-52 -5 -140 -11 -195 -14 -55 -4 -127 -9 -160 -12 -78 -6 -785 -54 -807 -54 -30 0 -9 -27 25 -33 18 -3 358 -60 755 -127 398 -67 726 -119 729 -116 11 10 -48 168 -99 269 l-50 97 -51 -1 c-29 -1 -95 -5 -147 -9z"/>
 <path d="M758 1466 c-201 -66 -370 -124 -373 -128 -9 -9 27 -129 65 -213 22 -50 33 -65 43 -58 6 6 157 119 334 251 233 175 321 246 317 257 -4 8 -9 15 -13 14 -3 -1 -171 -56 -373 -123z"/>
 <path d="M1323 1564 c-3 -8 -4 -16 -2 -18 2 -2 81 -57 174 -122 181 -125 295 -205 545 -379 258 -180 424 -295 565 -393 l134 -92 40 69 c64 109 126 313 99 324 -7 2 -215 87 -463 187 -1072 435 -1086 440 -1092 424z"/>
 <path d="M1137 1508 c-13 -18 -71 -98 -129 -178 -57 -80 -164 -227 -236 -327 -73 -100 -132 -186 -132 -192 0 -6 53 -64 117 -130 109 -109 168 -159 177 -150 5 6 266 972 266 986 0 9 -21 23 -35 23 -2 0 -15 -15 -28 -32z"/>
 <path d="M1300 1531 c0 -6 172 -299 381 -653 210 -354 386 -653 392 -665 9 -20 15 -22 51 -16 119 18 356 110 356 138 0 6 -17 28 -37 47 -21 19 -168 170 -328 334 -159 164 -375 387 -480 494 -104 107 -219 225 -255 263 -63 65 -80 77 -80 58z"/>
 <path d="M1244 1403 c3 -65 8 -201 11 -303 3 -102 7 -237 10 -300 3 -63 8 -198 11 -300 3 -102 7 -186 9 -188 19 -21 401 -130 413 -118 2 2 -51 174 -118 382 -67 209 -153 478 -191 599 -117 367 -108 345 -131 345 -19 0 -20 -4 -14 -117z"/>
 </g>
<g id="layer102" fill="#000" stroke="none">
 <path d="M0 1305 l0 -1305 1580 0 1580 0 0 1305 0 1305 -1580 0 -1580 0 0 -1305z m1214 1035 c3 -74 8 -227 12 -340 3 -113 7 -227 9 -253 5 -69 -15 -55 -41 29 -12 38 -63 196 -113 352 -50 155 -91 288 -91 296 0 8 22 18 58 25 51 11 155 28 158 27 1 -1 4 -62 8 -136z m450 104 c61 -13 113 -27 117 -31 5 -5 -103 -161 -238 -348 -135 -187 -251 -349 -259 -360 -9 -12 -17 -16 -23 -10 -6 6 26 141 88 370 54 198 101 372 105 387 6 26 8 27 54 22 26 -3 96 -17 156 -30z m-659 -420 c142 -238 192 -330 183 -336 -9 -5 -98 79 -280 265 -147 149 -267 277 -267 283 -1 15 156 126 167 119 1 -1 90 -150 197 -331z m1260 148 c81 -57 184 -147 177 -153 -4 -3 -56 -22 -117 -42 -60 -20 -310 -101 -554 -182 -376 -123 -447 -144 -458 -132 -12 12 48 60 388 315 l401 301 56 -35 c32 -20 80 -52 107 -72z m-1437 -278 c163 -114 303 -213 311 -220 30 -28 2 -23 -90 15 -52 21 -213 87 -359 146 -146 59 -267 108 -269 110 -4 5 57 114 77 138 8 9 19 17 24 17 4 0 142 -93 306 -206z m-51 -204 c196 -33 358 -61 359 -63 2 -1 0 -8 -4 -14 -4 -6 -47 -13 -97 -17 -300 -21 -669 -46 -676 -46 -11 0 -12 97 -3 165 7 45 8 47 36 41 16 -3 189 -33 385 -66z m1981 -77 c51 -101 110 -259 99 -269 -3 -3 -331 49 -729 116 -397 67 -737 124 -755 127 -34 6 -55 33 -25 33 22 0 729 48 807 54 33 3 105 8 160 12 55 3 143 9 195 14 52 4 118 8 147 9 l51 1 50 -97z m-1614 -38 c4 -11 -84 -82 -317 -257 -177 -132 -328 -245 -334 -251 -10 -7 -21 8 -43 58 -38 84 -74 204 -65 213 5 6 726 248 746 251 4 1 9 -6 13 -14z m1271 -435 c248 -100 456 -185 463 -187 27 -11 -35 -215 -99 -324 l-40 -69 -134 92 c-141 98 -307 213 -565 393 -250 174 -364 254 -545 379 -93 65 -172 120 -174 122 -2 2 -1 10 2 18 6 16 20 11 1092 -424z m-1231 394 c9 -3 16 -11 16 -17 0 -14 -261 -980 -266 -986 -9 -9 -68 41 -177 150 -64 66 -117 124 -117 130 0 6 59 92 132 192 72 100 179 247 236 327 140 194 152 210 157 210 2 0 10 -3 19 -6z m196 -61 c36 -38 151 -156 255 -263 105 -107 321 -330 480 -494 160 -164 307 -315 328 -334 20 -19 37 -41 37 -47 0 -28 -237 -120 -356 -138 -36 -6 -42 -4 -51 16 -6 12 -182 311 -392 665 -209 354 -381 647 -381 653 0 19 17 7 80 -58z m-81 -15 c11 -35 51 -162 90 -283 38 -121 124 -390 191 -599 67 -208 120 -380 118 -382 -12 -12 -394 97 -413 118 -2 2 -6 86 -9 188 -3 102 -8 237 -11 300 -3 63 -7 198 -10 300 -3 102 -8 238 -11 303 -6 113 -5 117 14 117 16 0 25 -13 41 -62z"/>
 </g>

</svg>
